<!DOCTYPE svg PUBLIC "-//W3C//DTD SVG 1.1//EN" "http://www.w3.org/Graphics/SVG/1.1/DTD/svg11.dtd">
<!-- Uploaded to: SVG Repo, www.svgrepo.com, Transformed by: SVG Repo Mixer Tools -->
<svg fill="#492858" version="1.1" id="Capa_1" xmlns="http://www.w3.org/2000/svg" xmlns:xlink="http://www.w3.org/1999/xlink" viewBox="0 0 490 490" xml:space="preserve" width="800px" height="800px" stroke="#492858">
<g id="SVGRepo_bgCarrier" stroke-width="0"/>
<g id="SVGRepo_tracerCarrier" stroke-linecap="round" stroke-linejoin="round"/>
<g id="SVGRepo_iconCarrier"> <g id="XMLID_844_"> <rect id="XMLID_845_" x="200" y="160" width="30" height="30"/> <rect id="XMLID_846_" x="260" y="100" width="30" height="30"/> <path id="XMLID_847_" d="M460,245v25h-15v30h15v30h-15v30h15v15c0,46.869-38.131,85-85,85s-85-38.131-85-85V270h30v105 c0,30.327,24.673,55,55,55s55-24.673,55-55h-30c0,13.785-11.215,25-25,25s-25-11.215-25-25v-15h15v-30h-15v-30h15v-30h-15v-33.384 c11.814-5.628,20-17.682,20-31.616s-8.186-25.988-20-31.616V105C350,47.103,302.897,0,245,0c-57.897,0-105,47.103-105,105v68.384 c-11.814,5.628-20,17.682-20,31.616s8.186,25.989,20,31.616V270h-15v30h15v30h-15v30h15v15c0,13.785-11.215,25-25,25 s-25-11.215-25-25H60c0,30.327,24.673,55,55,55s55-24.673,55-55V270h30v105c0,46.869-38.131,85-85,85s-85-38.131-85-85v-15h15v-30 H30v-30h15v-30H30v-25H0v130c0,63.411,51.589,115,115,115s115-51.589,115-115V270h30v105c0,63.411,51.589,115,115,115 s115-51.589,115-115V245H460z M170,105c0-41.355,33.645-75,75-75c41.355,0,75,33.645,75,75v135H170V105z"/> </g> </g>
</svg>